{"glyphs":{"0":{"ha":1169,"x_min":35,"x_max":1076,"o":"m 416 312 q 343 343 373 312 q 312 416 312 373 q 343 490 312 459 q 416 521 373 521 q 490 490 459 521 q 521 416 521 459 q 490 343 521 373 q 416 312 459 312 l 416 312 m 833 243 q 858 253 848 243 q 868 278 868 263 l 868 555 q 858 580 868 570 q 833 590 848 590 l 278 590 q 253 580 263 590 q 243 555 243 570 l 243 278 q 253 253 243 263 q 278 243 263 243 l 833 243 m 278 35 q 106 106 177 35 q 35 278 35 177 l 35 555 q 106 727 35 656 q 278 799 177 799 l 833 799 q 1005 727 934 799 q 1076 555 1076 656 l 1076 278 q 1005 106 1076 177 q 833 35 934 35 l 278 35 z "},"1":{"ha":1169,"x_min":35,"x_max":1076,"o":"m 139 590 q 65 621 96 590 q 35 694 35 651 q 65 768 35 737 q 139 799 96 799 q 212 768 182 799 q 243 694 243 737 q 212 621 243 651 q 139 590 182 590 l 139 590 m 416 35 q 343 65 373 35 q 312 139 312 96 q 343 207 312 174 q 416 243 376 243 l 555 243 q 580 253 570 243 q 590 278 590 263 l 590 555 q 580 580 590 570 q 555 590 570 590 l 416 590 q 343 626 376 590 q 312 694 312 660 q 343 768 312 737 q 416 799 373 799 l 555 799 q 727 727 656 799 q 799 555 799 656 l 799 278 q 809 253 799 263 q 833 243 819 243 l 972 243 q 1046 207 1013 243 q 1076 139 1076 174 q 1046 65 1076 96 q 972 35 1015 35 l 833 35 q 759 46 795 35 q 694 78 724 57 q 630 46 664 57 q 555 35 593 35 l 416 35 z "},"2":{"ha":1169,"x_min":35,"x_max":1076,"o":"m 972 35 q 899 65 929 35 q 868 139 868 96 q 899 212 868 182 q 972 243 929 243 q 1046 212 1015 243 q 1076 139 1076 182 q 1046 65 1076 96 q 972 35 1015 35 l 972 35 m 278 35 q 106 106 177 35 q 35 278 35 177 q 106 450 35 378 q 278 521 177 521 l 833 521 q 858 531 848 521 q 868 555 868 541 q 858 580 868 570 q 833 590 848 590 l 139 590 q 65 626 98 590 q 35 694 35 660 q 65 768 35 737 q 139 799 96 799 l 833 799 q 1005 727 934 799 q 1076 555 1076 656 q 1005 384 1076 455 q 833 312 934 312 l 278 312 q 253 302 263 312 q 243 278 243 292 q 253 253 243 263 q 278 243 263 243 l 694 243 q 768 212 737 243 q 799 139 799 182 q 768 71 799 104 q 694 35 735 35 l 278 35 z "},"3":{"ha":1169,"x_min":35,"x_max":1076,"o":"m 416 312 q 343 343 373 312 q 312 416 312 373 q 343 490 312 459 q 416 521 373 521 q 490 490 459 521 q 521 416 521 459 q 490 343 521 373 q 416 312 459 312 l 416 312 m 139 35 q 65 65 96 35 q 35 139 35 96 q 65 207 35 174 q 139 243 98 243 l 833 243 q 858 253 848 243 q 868 278 868 263 q 858 302 868 292 q 833 312 848 312 l 694 312 q 621 343 651 312 q 590 416 590 373 q 621 485 590 451 q 694 521 653 521 l 833 521 q 858 531 848 521 q 868 555 868 541 q 858 580 868 570 q 833 590 848 590 l 139 590 q 65 621 96 590 q 35 694 35 651 q 65 763 35 729 q 139 799 98 799 l 833 799 q 1005 727 934 799 q 1076 555 1076 656 q 1065 481 1076 517 q 1033 416 1054 447 q 1065 352 1054 387 q 1076 278 1076 316 q 1005 106 1076 177 q 833 35 934 35 l 139 35 z "},"4":{"ha":1169,"x_min":35,"x_max":1076,"o":"m 972 35 q 899 65 929 35 q 868 139 868 96 q 899 212 868 182 q 972 243 929 243 q 1046 212 1015 243 q 1076 139 1076 182 q 1046 65 1076 96 q 972 35 1015 35 l 972 35 m 278 312 q 106 384 177 312 q 35 555 35 455 l 35 694 q 71 768 35 735 q 139 799 104 799 q 212 768 182 799 q 243 694 243 737 l 243 555 q 253 531 243 541 q 278 521 263 521 l 833 521 q 858 531 848 521 q 868 555 868 541 l 868 694 q 904 768 868 735 q 972 799 937 799 q 1046 768 1015 799 q 1076 694 1076 737 l 1076 555 q 1005 384 1076 455 q 833 312 934 312 l 278 312 z "},"5":{"ha":1169,"x_min":35,"x_max":1076,"o":"m 139 35 q 65 65 96 35 q 35 139 35 96 q 65 207 35 174 q 139 243 98 243 l 833 243 q 858 253 848 243 q 868 278 868 263 q 858 302 868 292 q 833 312 848 312 l 278 312 q 106 384 177 312 q 35 555 35 455 q 106 727 35 656 q 278 799 177 799 l 694 799 q 768 763 735 799 q 799 694 799 729 q 768 621 799 651 q 694 590 737 590 l 278 590 q 253 580 263 590 q 243 555 243 570 q 253 531 243 541 q 278 521 263 521 l 833 521 q 1005 450 934 521 q 1076 278 1076 378 q 1005 106 1076 177 q 833 35 934 35 l 139 35 m 972 590 q 899 621 929 590 q 868 694 868 651 q 899 768 868 737 q 972 799 929 799 q 1046 768 1015 799 q 1076 694 1076 737 q 1046 621 1076 651 q 972 590 1015 590 l 972 590 z "},"6":{"ha":1169,"x_min":35,"x_max":1076,"o":"m 833 243 q 858 253 848 243 q 868 278 868 263 q 858 302 868 292 q 833 312 848 312 l 278 312 q 253 302 263 312 q 243 278 243 292 q 253 253 243 263 q 278 243 263 243 l 833 243 m 278 35 q 106 106 177 35 q 35 278 35 177 q 46 352 35 316 q 78 416 57 387 q 46 481 57 447 q 35 555 35 517 q 106 727 35 656 q 278 799 177 799 l 416 799 q 490 768 459 799 q 521 694 521 737 q 490 626 521 660 q 416 590 457 590 l 278 590 q 253 580 263 590 q 243 555 243 570 q 253 531 243 541 q 278 521 263 521 l 833 521 q 1005 450 934 521 q 1076 278 1076 378 q 1005 106 1076 177 q 833 35 934 35 l 278 35 m 694 590 q 621 621 651 590 q 590 694 590 651 q 621 768 590 737 q 694 799 651 799 q 768 768 737 799 q 799 694 799 737 q 768 621 799 651 q 694 590 737 590 l 694 590 z "},"7":{"ha":1169,"x_min":35,"x_max":1076,"o":"m 139 590 q 65 621 96 590 q 35 694 35 651 q 65 768 35 737 q 139 799 96 799 q 212 768 182 799 q 243 694 243 737 q 212 621 243 651 q 139 590 182 590 l 139 590 m 416 35 q 343 65 373 35 q 312 139 312 96 l 312 278 q 384 450 312 378 q 555 521 455 521 l 833 521 q 858 531 848 521 q 868 555 868 541 q 858 580 868 570 q 833 590 848 590 l 416 590 q 343 626 376 590 q 312 694 312 660 q 343 768 312 737 q 416 799 373 799 l 833 799 q 1005 727 934 799 q 1076 555 1076 656 q 1005 384 1076 455 q 833 312 934 312 l 555 312 q 531 302 541 312 q 521 278 521 292 l 521 139 q 485 65 521 98 q 416 35 451 35 l 416 35 z "},"8":{"ha":1169,"x_min":35,"x_max":1076,"o":"m 833 243 q 858 253 848 243 q 868 278 868 263 q 858 302 868 292 q 833 312 848 312 l 278 312 q 253 302 263 312 q 243 278 243 292 q 253 253 243 263 q 278 243 263 243 l 833 243 m 139 590 q 65 621 96 590 q 35 694 35 651 q 65 768 35 737 q 139 799 96 799 q 212 768 182 799 q 243 694 243 737 q 212 621 243 651 q 139 590 182 590 l 139 590 m 278 35 q 106 106 177 35 q 35 278 35 177 q 106 450 35 378 q 278 521 177 521 l 833 521 q 858 531 848 521 q 868 555 868 541 q 858 580 868 570 q 833 590 848 590 l 416 590 q 343 626 376 590 q 312 694 312 660 q 343 768 312 737 q 416 799 373 799 l 833 799 q 1005 727 934 799 q 1076 555 1076 656 q 1065 481 1076 517 q 1033 416 1054 447 q 1065 352 1054 387 q 1076 278 1076 316 q 1005 106 1076 177 q 833 35 934 35 l 278 35 z "},"9":{"ha":1169,"x_min":35,"x_max":1076,"o":"m 416 35 q 343 65 373 35 q 312 139 312 96 q 343 212 312 182 q 416 243 373 243 q 490 212 459 243 q 521 139 521 182 q 490 65 521 96 q 416 35 459 35 l 416 35 m 833 521 q 858 531 848 521 q 868 555 868 541 q 858 580 868 570 q 833 590 848 590 l 278 590 q 253 580 263 590 q 243 555 243 570 q 253 531 243 541 q 278 521 263 521 l 833 521 m 694 35 q 621 65 651 35 q 590 139 590 96 q 621 207 590 174 q 694 243 653 243 l 833 243 q 858 253 848 243 q 868 278 868 263 q 858 302 868 292 q 833 312 848 312 l 278 312 q 106 384 177 312 q 35 555 35 455 q 106 727 35 656 q 278 799 177 799 l 833 799 q 1005 727 934 799 q 1076 555 1076 656 q 1065 481 1076 517 q 1033 416 1054 447 q 1065 352 1054 387 q 1076 278 1076 316 q 1005 106 1076 177 q 833 35 934 35 l 694 35 z "}," ":{"ha":555,"x_min":0,"x_max":0,"o":""},"!":{"ha":336,"x_min":35,"x_max":243,"o":"m 139 35 q 65 65 96 35 q 35 139 35 96 q 65 212 35 182 q 139 243 96 243 q 212 212 182 243 q 243 139 243 182 q 212 65 243 96 q 139 35 182 35 l 139 35 m 139 312 q 65 343 96 312 q 35 416 35 373 l 35 694 q 71 768 35 735 q 139 799 104 799 q 212 768 182 799 q 243 694 243 737 l 243 416 q 207 343 243 376 q 139 312 174 312 l 139 312 z "},"\"":{"ha":614,"x_min":35,"x_max":521,"o":"m 139 590 q 65 621 96 590 q 35 694 35 651 l 35 833 q 65 907 35 876 q 139 937 96 937 q 212 907 182 937 q 243 833 243 876 l 243 694 q 207 621 243 653 q 139 590 174 590 l 139 590 m 416 590 q 343 621 373 590 q 312 694 312 651 l 312 833 q 343 907 312 876 q 416 937 373 937 q 490 907 459 937 q 521 833 521 876 l 521 694 q 485 621 521 653 q 416 590 451 590 l 416 590 z "},"#":{"ha":1169,"x_min":35,"x_max":1076,"o":"m 416 174 q 343 204 373 174 q 312 278 312 235 q 302 302 312 292 q 278 312 292 312 l 139 312 q 65 343 96 312 q 35 416 35 373 q 65 485 35 451 q 139 521 98 521 l 278 521 q 352 509 316 521 q 416 477 387 498 q 481 509 447 498 q 555 521 517 521 q 630 509 593 521 q 694 477 664 498 q 759 509 724 498 q 833 521 795 521 l 972 521 q 1046 485 1013 521 q 1076 416 1076 451 q 1046 343 1076 373 q 972 312 1015 312 l 833 312 q 809 302 819 312 q 799 278 799 292 q 768 204 799 235 q 694 174 737 174 q 621 204 651 174 q 590 278 590 235 q 580 302 590 292 q 555 312 570 312 q 531 302 541 312 q 521 278 521 292 q 490 204 521 235 q 416 174 459 174 l 416 174 m 139 590 q 65 626 98 590 q 35 694 35 660 q 65 768 35 737 q 139 799 96 799 l 278 799 q 302 809 292 799 q 312 833 312 819 q 343 907 312 876 q 416 937 373 937 q 490 907 459 937 q 521 833 521 876 q 531 809 521 819 q 555 799 541 799 q 580 809 570 799 q 590 833 590 819 q 621 907 590 876 q 694 937 651 937 q 768 907 737 937 q 799 833 799 876 q 809 809 799 819 q 833 799 819 799 l 972 799 q 1046 768 1015 799 q 1076 694 1076 737 q 1046 626 1076 660 q 972 590 1013 590 l 833 590 q 759 602 795 590 q 694 634 724 613 q 630 602 664 613 q 555 590 593 590 q 481 602 517 590 q 416 634 447 613 q 352 602 387 613 q 278 590 316 590 l 139 590 z "},"$":{"ha":1169,"x_min":35,"x_max":1076,"o":"m 416 -243 q 343 -212 373 -243 q 312 -139 312 -182 q 343 -65 312 -96 q 416 -35 373 -35 q 490 -65 459 -35 q 521 -139 521 -96 q 490 -212 521 -182 q 416 -243 459 -243 l 416 -243 m 139 35 q 65 65 96 35 q 35 139 35 96 q 65 207 35 174 q 139 243 98 243 l 833 243 q 858 253 848 243 q 868 278 868 263 q 858 302 868 292 q 833 312 848 312 l 278 312 q 106 384 177 312 q 35 555 35 455 q 106 727 35 656 q 278 799 177 799 l 972 799 q 1046 763 1013 799 q 1076 694 1076 729 q 1046 621 1076 651 q 972 590 1015 590 l 278 590 q 253 580 263 590 q 243 555 243 570 q 253 531 243 541 q 278 521 263 521 l 833 521 q 1005 450 934 521 q 1076 278 1076 378 q 1005 106 1076 177 q 833 35 934 35 l 139 35 m 694 868 q 621 899 651 868 q 590 972 590 929 q 621 1046 590 1015 q 694 1076 651 1076 q 768 1046 737 1076 q 799 972 799 1015 q 768 899 799 929 q 694 868 737 868 l 694 868 z "},"%":{"ha":614,"x_min":0,"x_max":555,"o":"m 416 104 q 441 114 431 104 q 451 139 451 124 q 441 163 451 153 q 416 174 431 174 q 392 163 402 174 q 382 139 382 153 q 392 114 382 124 q 416 104 402 104 l 416 104 m 416 0 q 318 40 359 0 q 278 139 278 81 q 318 237 278 196 q 416 278 359 278 q 515 237 474 278 q 555 139 555 196 q 515 40 555 81 q 416 0 474 0 l 416 0 m 139 660 q 163 670 153 660 q 174 694 174 680 q 163 719 174 709 q 139 729 153 729 q 114 719 124 729 q 104 694 104 709 q 114 670 104 680 q 139 660 124 660 l 139 660 m 139 35 q 65 65 96 35 q 35 139 35 96 l 35 278 q 106 450 35 378 q 278 521 177 521 q 302 531 292 521 q 312 555 312 541 l 312 694 q 343 768 312 737 q 416 799 373 799 q 485 768 451 799 q 521 694 521 735 l 521 555 q 450 384 521 455 q 278 312 378 312 q 253 302 263 312 q 243 278 243 292 l 243 139 q 207 65 243 98 q 139 35 174 35 l 139 35 m 139 555 q 40 596 81 555 q 0 694 0 637 q 40 792 0 752 q 139 833 81 833 q 237 792 196 833 q 278 694 278 752 q 237 596 278 637 q 139 555 196 555 l 139 555 z "},"&":{"ha":1169,"x_min":35,"x_max":1076,"o":"m 694 -243 q 621 -212 651 -243 q 590 -139 590 -182 q 621 -65 590 -96 q 694 -35 651 -35 q 768 -65 737 -35 q 799 -139 799 -96 q 768 -212 799 -182 q 694 -243 737 -243 l 694 -243 m 278 35 q 106 106 177 35 q 35 278 35 177 q 46 352 35 316 q 78 416 57 387 q 46 481 57 447 q 35 555 35 517 q 106 727 35 656 q 278 799 177 799 l 972 799 q 1046 763 1013 799 q 1076 694 1076 729 q 1046 621 1076 651 q 972 590 1015 590 l 278 590 q 253 580 263 590 q 243 555 243 570 q 253 531 243 541 q 278 521 263 521 l 416 521 q 490 485 457 521 q 521 416 521 451 q 490 343 521 373 q 416 312 459 312 l 278 312 q 253 302 263 312 q 243 278 243 292 q 253 253 243 263 q 278 243 263 243 l 555 243 q 580 253 570 243 q 590 278 590 263 q 661 450 590 378 q 833 521 733 521 l 972 521 q 1046 485 1013 521 q 1076 416 1076 451 q 1046 343 1076 373 q 972 312 1015 312 l 833 312 q 809 302 819 312 q 799 278 799 292 q 727 106 799 177 q 555 35 656 35 l 278 35 m 694 868 q 621 899 651 868 q 590 972 590 929 q 621 1046 590 1015 q 694 1076 651 1076 q 768 1046 737 1076 q 799 972 799 1015 q 768 899 799 929 q 694 868 737 868 l 694 868 z "},"'":{"ha":336,"x_min":35,"x_max":243,"o":"m 139 590 q 65 621 96 590 q 35 694 35 651 l 35 833 q 65 907 35 876 q 139 937 96 937 q 212 907 182 937 q 243 833 243 876 l 243 694 q 207 621 243 653 q 139 590 174 590 l 139 590 z "},"(":{"ha":614,"x_min":35,"x_max":521,"o":"m 278 35 q 106 106 177 35 q 35 278 35 177 l 35 694 q 71 768 35 735 q 139 799 104 799 q 212 768 182 799 q 243 694 243 737 l 243 278 q 253 253 243 263 q 278 243 263 243 l 416 243 q 490 207 457 243 q 521 139 521 174 q 490 65 521 96 q 416 35 459 35 l 278 35 m 416 590 q 343 621 373 590 q 312 694 312 651 q 343 768 312 737 q 416 799 373 799 q 490 768 459 799 q 521 694 521 737 q 490 621 521 651 q 416 590 459 590 l 416 590 z "},")":{"ha":614,"x_min":35,"x_max":521,"o":"m 139 35 q 65 65 96 35 q 35 139 35 96 q 65 212 35 182 q 139 243 96 243 q 212 212 182 243 q 243 139 243 182 q 212 65 243 96 q 139 35 182 35 l 139 35 m 416 35 q 343 65 373 35 q 312 139 312 96 l 312 555 q 302 580 312 570 q 278 590 292 590 l 139 590 q 65 626 98 590 q 35 694 35 660 q 65 768 35 737 q 139 799 96 799 l 278 799 q 450 727 378 799 q 521 555 521 656 l 521 139 q 485 65 521 98 q 416 35 451 35 l 416 35 z "},"*":{"ha":1447,"x_min":174,"x_max":1215,"o":"m 416 312 q 343 343 373 312 q 312 416 312 373 l 312 555 q 384 727 312 656 q 555 799 455 799 l 833 799 q 1005 727 934 799 q 1076 555 1076 656 l 1076 416 q 1040 343 1076 376 q 972 312 1007 312 q 899 343 929 312 q 868 416 868 373 l 868 555 q 858 580 868 570 q 833 590 848 590 l 555 590 q 531 580 541 590 q 521 555 521 570 l 521 416 q 485 343 521 376 q 416 312 451 312 l 416 312 m 278 868 q 204 899 235 868 q 174 972 174 929 q 204 1046 174 1015 q 278 1076 235 1076 l 555 1076 q 580 1086 570 1076 q 590 1111 590 1097 l 590 1250 q 621 1323 590 1293 q 694 1354 651 1354 q 763 1323 729 1354 q 799 1250 799 1291 l 799 1111 q 809 1086 799 1097 q 833 1076 819 1076 l 1111 1076 q 1184 1046 1154 1076 q 1215 972 1215 1015 q 1184 899 1215 929 q 1111 868 1154 868 l 833 868 q 759 879 795 868 q 694 911 724 890 q 630 879 664 890 q 555 868 593 868 l 278 868 z "},"+":{"ha":891,"x_min":35,"x_max":799,"o":"m 416 35 q 343 65 373 35 q 312 139 312 96 l 312 278 q 302 302 312 292 q 278 312 292 312 l 139 312 q 65 343 96 312 q 35 416 35 373 q 65 485 35 451 q 139 521 98 521 l 278 521 q 352 509 316 521 q 416 477 387 498 q 481 509 447 498 q 555 521 517 521 l 694 521 q 768 485 735 521 q 799 416 799 451 q 768 343 799 373 q 694 312 737 312 l 555 312 q 531 302 541 312 q 521 278 521 292 l 521 139 q 485 65 521 98 q 416 35 451 35 l 416 35 m 416 590 q 343 621 373 590 q 312 694 312 651 q 343 768 312 737 q 416 799 373 799 q 490 768 459 799 q 521 694 521 737 q 490 621 521 651 q 416 590 459 590 l 416 590 z "},",":{"ha":336,"x_min":24,"x_max":243,"o":"m 128 -157 q 88 -149 108 -157 q 32 -93 48 -133 q 24 -53 24 -73 q 32 -13 24 -33 q 35 0 35 -7 l 35 139 q 71 212 35 180 q 139 243 104 243 q 212 212 182 243 q 243 139 243 182 l 243 0 q 238 -48 243 -24 q 224 -93 233 -71 q 168 -149 208 -133 q 128 -157 148 -157 l 128 -157 z "},"-":{"ha":891,"x_min":35,"x_max":799,"o":"m 139 312 q 65 343 96 312 q 35 416 35 373 q 65 485 35 451 q 139 521 98 521 l 694 521 q 768 485 735 521 q 799 416 799 451 q 768 343 799 373 q 694 312 737 312 l 139 312 z "},".":{"ha":336,"x_min":35,"x_max":243,"o":"m 139 35 q 65 65 96 35 q 35 139 35 96 q 65 212 35 182 q 139 243 96 243 q 212 212 182 243 q 243 139 243 182 q 212 65 243 96 q 139 35 182 35 l 139 35 z "},"/":{"ha":614,"x_min":35,"x_max":521,"o":"m 139 35 q 65 65 96 35 q 35 139 35 96 l 35 278 q 106 450 35 378 q 278 521 177 521 q 302 531 292 521 q 312 555 312 541 l 312 694 q 343 768 312 737 q 416 799 373 799 q 485 768 451 799 q 521 694 521 735 l 521 555 q 450 384 521 455 q 278 312 378 312 q 253 302 263 312 q 243 278 243 292 l 243 139 q 207 65 243 98 q 139 35 174 35 l 139 35 z "},":":{"ha":336,"x_min":35,"x_max":243,"o":"m 139 35 q 65 65 96 35 q 35 139 35 96 q 65 212 35 182 q 139 243 96 243 q 212 212 182 243 q 243 139 243 182 q 212 65 243 96 q 139 35 182 35 l 139 35 m 139 312 q 65 343 96 312 q 35 416 35 373 q 65 490 35 459 q 139 521 96 521 q 212 490 182 521 q 243 416 243 459 q 212 343 243 373 q 139 312 182 312 l 139 312 z "},";":{"ha":336,"x_min":24,"x_max":243,"o":"m 128 -157 q 88 -149 108 -157 q 32 -93 48 -133 q 24 -53 24 -73 q 32 -13 24 -33 q 35 0 35 -7 l 35 139 q 71 212 35 180 q 139 243 104 243 q 212 212 182 243 q 243 139 243 182 l 243 0 q 238 -48 243 -24 q 224 -93 233 -71 q 168 -149 208 -133 q 128 -157 148 -157 l 128 -157 m 139 312 q 65 343 96 312 q 35 416 35 373 q 65 490 35 459 q 139 521 96 521 q 212 490 182 521 q 243 416 243 459 q 212 343 243 373 q 139 312 182 312 l 139 312 z "},"<":{"ha":891,"x_min":35,"x_max":799,"o":"m 278 35 q 106 106 177 35 q 35 278 35 177 q 106 450 35 378 q 278 521 177 521 l 416 521 q 490 485 457 521 q 521 416 521 451 q 490 343 521 373 q 416 312 459 312 l 278 312 q 253 302 263 312 q 243 278 243 292 q 253 253 243 263 q 278 243 263 243 l 694 243 q 768 207 735 243 q 799 139 799 174 q 768 65 799 96 q 694 35 737 35 l 278 35 m 694 312 q 621 343 651 312 q 590 416 590 373 q 621 490 590 459 q 694 521 651 521 q 768 490 737 521 q 799 416 799 459 q 768 343 799 373 q 694 312 737 312 l 694 312 z "},"=":{"ha":891,"x_min":35,"x_max":799,"o":"m 139 35 q 65 65 96 35 q 35 139 35 96 q 65 207 35 174 q 139 243 98 243 l 694 243 q 768 207 735 243 q 799 139 799 174 q 768 65 799 96 q 694 35 737 35 l 139 35 m 139 312 q 65 343 96 312 q 35 416 35 373 q 65 485 35 451 q 139 521 98 521 l 694 521 q 768 485 735 521 q 799 416 799 451 q 768 343 799 373 q 694 312 737 312 l 139 312 z "},">":{"ha":891,"x_min":35,"x_max":799,"o":"m 139 35 q 65 65 96 35 q 35 139 35 96 q 65 212 35 182 q 139 243 96 243 q 212 212 182 243 q 243 139 243 182 q 212 65 243 96 q 139 35 182 35 l 139 35 m 416 35 q 343 65 373 35 q 312 139 312 96 q 343 207 312 174 q 416 243 376 243 l 555 243 q 580 253 570 243 q 590 278 590 263 q 580 302 590 292 q 555 312 570 312 l 139 312 q 65 343 96 312 q 35 416 35 373 q 65 485 35 451 q 139 521 98 521 l 555 521 q 727 450 656 521 q 799 278 799 378 q 727 106 799 177 q 555 35 656 35 l 416 35 z "},"?":{"ha":1169,"x_min":35,"x_max":1076,"o":"m 416 35 q 343 65 373 35 q 312 139 312 96 q 343 212 312 182 q 416 243 373 243 q 490 212 459 243 q 521 139 521 182 q 490 65 521 96 q 416 35 459 35 l 416 35 m 139 312 q 65 343 96 312 q 35 416 35 373 l 35 555 q 106 727 35 656 q 278 799 177 799 l 833 799 q 1005 727 934 799 q 1076 555 1076 656 q 1005 384 1076 455 q 833 312 934 312 l 416 312 q 343 343 373 312 q 312 416 312 373 q 343 485 312 451 q 416 521 376 521 l 833 521 q 858 531 848 521 q 868 555 868 541 q 858 580 868 570 q 833 590 848 590 l 278 590 q 253 580 263 590 q 243 555 243 570 l 243 416 q 207 343 243 376 q 139 312 174 312 l 139 312 z "},"@":{"ha":1169,"x_min":35,"x_max":1076,"o":"m 416 312 q 343 343 373 312 q 312 416 312 373 q 343 490 312 459 q 416 521 373 521 q 490 490 459 521 q 521 416 521 459 q 490 343 521 373 q 416 312 459 312 l 416 312 m 278 35 q 106 106 177 35 q 35 278 35 177 l 35 555 q 106 727 35 656 q 278 799 177 799 l 833 799 q 1005 727 934 799 q 1076 555 1076 656 l 1076 278 q 1005 106 1076 177 q 833 35 934 35 q 661 106 733 35 q 590 278 590 177 l 590 416 q 626 490 590 457 q 694 521 660 521 q 768 490 737 521 q 799 416 799 459 l 799 278 q 809 253 799 263 q 833 243 819 243 q 858 253 848 243 q 868 278 868 263 l 868 555 q 858 580 868 570 q 833 590 848 590 l 278 590 q 253 580 263 590 q 243 555 243 570 l 243 278 q 253 253 243 263 q 278 243 263 243 l 416 243 q 490 207 457 243 q 521 139 521 174 q 490 65 521 96 q 416 35 459 35 l 278 35 z "},"A":{"ha":1169,"x_min":35,"x_max":1076,"o":"m 555 35 q 482 65 512 35 q 451 139 451 96 q 482 212 451 182 q 555 243 512 243 q 629 212 598 243 q 660 139 660 182 q 629 65 660 96 q 555 35 598 35 l 555 35 m 416 312 q 343 343 373 312 q 312 416 312 373 q 343 485 312 451 q 416 521 376 521 l 694 521 q 768 485 735 521 q 799 416 799 451 q 768 343 799 373 q 694 312 737 312 l 416 312 m 139 35 q 71 65 104 35 q 35 139 35 98 l 35 555 q 106 727 35 656 q 278 799 177 799 l 833 799 q 1005 727 934 799 q 1076 555 1076 656 l 1076 139 q 1046 65 1076 96 q 972 35 1015 35 q 904 65 937 35 q 868 139 868 98 l 868 555 q 858 580 868 570 q 833 590 848 590 l 278 590 q 253 580 263 590 q 243 555 243 570 l 243 139 q 212 65 243 96 q 139 35 182 35 l 139 35 z "},"B":{"ha":1169,"x_min":35,"x_max":1076,"o":"m 139 312 q 65 343 96 312 q 35 416 35 373 q 65 490 35 459 q 139 521 96 521 q 212 490 182 521 q 243 416 243 459 q 212 343 243 373 q 139 312 182 312 l 139 312 m 139 35 q 65 65 96 35 q 35 139 35 96 q 65 207 35 174 q 139 243 98 243 l 833 243 q 858 253 848 243 q 868 278 868 263 q 858 302 868 292 q 833 312 848 312 l 416 312 q 343 343 373 312 q 312 416 312 373 q 343 485 312 451 q 416 521 376 521 l 833 521 q 858 531 848 521 q 868 555 868 541 q 858 580 868 570 q 833 590 848 590 l 139 590 q 65 621 96 590 q 35 694 35 651 q 65 763 35 729 q 139 799 98 799 l 833 799 q 1005 727 934 799 q 1076 555 1076 656 q 1065 481 1076 517 q 1033 416 1054 447 q 1065 352 1054 387 q 1076 278 1076 316 q 1005 106 1076 177 q 833 35 934 35 l 139 35 z "},"C":{"ha":1169,"x_min":35,"x_max":1076,"o":"m 416 312 q 343 343 373 312 q 312 416 312 373 q 343 490 312 459 q 416 521 373 521 q 490 490 459 521 q 521 416 521 459 q 490 343 521 373 q 416 312 459 312 l 416 312 m 278 35 q 106 106 177 35 q 35 278 35 177 l 35 555 q 106 727 35 656 q 278 799 177 799 l 972 799 q 1046 763 1013 799 q 1076 694 1076 729 q 1046 621 1076 651 q 972 590 1015 590 l 278 590 q 253 580 263 590 q 243 555 243 570 l 243 278 q 253 253 243 263 q 278 243 263 243 l 972 243 q 1046 207 1013 243 q 1076 139 1076 174 q 1046 65 1076 96 q 972 35 1015 35 l 278 35 z "},"D":{"ha":1169,"x_min":35,"x_max":1076,"o":"m 139 312 q 65 343 96 312 q 35 416 35 373 q 65 490 35 459 q 139 521 96 521 q 212 490 182 521 q 243 416 243 459 q 212 343 243 373 q 139 312 182 312 l 139 312 m 139 35 q 65 65 96 35 q 35 139 35 96 q 65 207 35 174 q 139 243 98 243 l 833 243 q 858 253 848 243 q 868 278 868 263 l 868 555 q 858 580 868 570 q 833 590 848 590 l 139 590 q 65 621 96 590 q 35 694 35 651 q 65 763 35 729 q 139 799 98 799 l 833 799 q 1005 727 934 799 q 1076 555 1076 656 l 1076 278 q 1005 106 1076 177 q 833 35 934 35 l 139 35 z "},"E":{"ha":1169,"x_min":35,"x_max":1076,"o":"m 139 35 q 65 65 96 35 q 35 139 35 96 q 65 207 35 174 q 139 243 98 243 l 972 243 q 1046 207 1013 243 q 1076 139 1076 174 q 1046 65 1076 96 q 972 35 1015 35 l 139 35 m 139 312 q 65 343 96 312 q 35 416 35 373 q 65 490 35 459 q 139 521 96 521 q 212 490 182 521 q 243 416 243 459 q 212 343 243 373 q 139 312 182 312 l 139 312 m 416 312 q 343 343 373 312 q 312 416 312 373 q 343 485 312 451 q 416 521 376 521 l 972 521 q 1046 485 1013 521 q 1076 416 1076 451 q 1046 343 1076 373 q 972 312 1015 312 l 416 312 m 139 590 q 65 621 96 590 q 35 694 35 651 q 65 763 35 729 q 139 799 98 799 l 972 799 q 1046 763 1013 799 q 1076 694 1076 729 q 1046 621 1076 651 q 972 590 1015 590 l 139 590 z "},"F":{"ha":1169,"x_min":35,"x_max":1076,"o":"m 416 312 q 343 343 373 312 q 312 416 312 373 q 343 490 312 459 q 416 521 373 521 q 490 490 459 521 q 521 416 521 459 q 490 343 521 373 q 416 312 459 312 l 416 312 m 694 312 q 621 343 651 312 q 590 416 590 373 q 621 485 590 451 q 694 521 653 521 l 972 521 q 1046 485 1013 521 q 1076 416 1076 451 q 1046 343 1076 373 q 972 312 1015 312 l 694 312 m 139 35 q 65 65 96 35 q 35 139 35 96 l 35 555 q 106 727 35 656 q 278 799 177 799 l 972 799 q 1046 763 1013 799 q 1076 694 1076 729 q 1046 621 1076 651 q 972 590 1015 590 l 278 590 q 253 580 263 590 q 243 555 243 570 l 243 139 q 207 65 243 98 q 139 35 174 35 l 139 35 z "},"G":{"ha":1169,"x_min":35,"x_max":1076,"o":"m 416 312 q 343 343 373 312 q 312 416 312 373 q 343 490 312 459 q 416 521 373 521 q 490 490 459 521 q 521 416 521 459 q 490 343 521 373 q 416 312 459 312 l 416 312 m 278 35 q 106 106 177 35 q 35 278 35 177 l 35 555 q 106 727 35 656 q 278 799 177 799 l 972 799 q 1046 763 1013 799 q 1076 694 1076 729 q 1046 621 1076 651 q 972 590 1015 590 l 278 590 q 253 580 263 590 q 243 555 243 570 l 243 278 q 253 253 243 263 q 278 243 263 243 l 833 243 q 858 253 848 243 q 868 278 868 263 q 858 302 868 292 q 833 312 848 312 l 694 312 q 621 343 651 312 q 590 416 590 373 q 621 485 590 451 q 694 521 653 521 l 833 521 q 1005 450 934 521 q 1076 278 1076 378 q 1005 106 1076 177 q 833 35 934 35 l 278 35 z "},"H":{"ha":1169,"x_min":35,"x_max":1076,"o":"m 555 35 q 482 65 512 35 q 451 139 451 96 q 482 212 451 182 q 555 243 512 243 q 629 212 598 243 q 660 139 660 182 q 629 65 660 96 q 555 35 598 35 l 555 35 m 416 312 q 343 343 373 312 q 312 416 312 373 q 343 485 312 451 q 416 521 376 521 l 694 521 q 768 485 735 521 q 799 416 799 451 q 768 343 799 373 q 694 312 737 312 l 416 312 m 139 35 q 65 65 96 35 q 35 139 35 96 l 35 694 q 71 768 35 735 q 139 799 104 799 q 212 768 182 799 q 243 694 243 737 l 243 139 q 207 65 243 98 q 139 35 174 35 l 139 35 m 972 35 q 899 65 929 35 q 868 139 868 96 l 868 694 q 904 768 868 735 q 972 799 937 799 q 1046 768 1015 799 q 1076 694 1076 737 l 1076 139 q 1040 65 1076 98 q 972 35 1007 35 l 972 35 z "},"I":{"ha":336,"x_min":35,"x_max":243,"o":"m 139 35 q 65 65 96 35 q 35 139 35 96 l 35 694 q 71 768 35 735 q 139 799 104 799 q 212 768 182 799 q 243 694 243 737 l 243 139 q 207 65 243 98 q 139 35 174 35 l 139 35 z "},"J":{"ha":1169,"x_min":35,"x_max":1076,"o":"m 694 590 q 621 621 651 590 q 590 694 590 651 q 621 768 590 737 q 694 799 651 799 q 768 768 737 799 q 799 694 799 737 q 768 621 799 651 q 694 590 737 590 l 694 590 m 278 35 q 106 106 177 35 q 35 278 35 177 q 65 351 35 321 q 139 382 96 382 q 212 351 182 382 q 243 278 243 321 q 253 253 243 263 q 278 243 263 243 l 833 243 q 858 253 848 243 q 868 278 868 263 l 868 694 q 904 768 868 735 q 972 799 937 799 q 1046 768 1015 799 q 1076 694 1076 737 l 1076 278 q 1005 106 1076 177 q 833 35 934 35 l 278 35 z "},"K":{"ha":1169,"x_min":35,"x_max":1076,"o":"m 416 312 q 343 343 373 312 q 312 416 312 373 q 343 490 312 459 q 416 521 373 521 q 490 490 459 521 q 521 416 521 459 q 490 343 521 373 q 416 312 459 312 l 416 312 m 139 35 q 65 65 96 35 q 35 139 35 96 l 35 694 q 71 768 35 735 q 139 799 104 799 q 212 768 182 799 q 243 694 243 737 l 243 139 q 207 65 243 98 q 139 35 174 35 l 139 35 m 972 35 q 899 65 929 35 q 868 139 868 96 l 868 278 q 858 302 868 292 q 833 312 848 312 l 694 312 q 621 343 651 312 q 590 416 590 373 q 621 485 590 451 q 694 521 653 521 l 833 521 q 858 531 848 521 q 868 555 868 541 l 868 694 q 904 768 868 735 q 972 799 937 799 q 1046 768 1015 799 q 1076 694 1076 737 l 1076 555 q 1065 481 1076 517 q 1033 416 1054 447 q 1065 352 1054 387 q 1076 278 1076 316 l 1076 139 q 1040 65 1076 98 q 972 35 1007 35 l 972 35 z "},"L":{"ha":1169,"x_min":35,"x_max":1076,"o":"m 972 35 q 899 65 929 35 q 868 139 868 96 q 899 212 868 182 q 972 243 929 243 q 1046 212 1015 243 q 1076 139 1076 182 q 1046 65 1076 96 q 972 35 1015 35 l 972 35 m 278 35 q 106 106 177 35 q 35 278 35 177 l 35 694 q 65 768 35 737 q 139 799 96 799 q 207 768 174 799 q 243 694 243 735 l 243 278 q 253 253 243 263 q 278 243 263 243 l 694 243 q 768 207 735 243 q 799 139 799 174 q 768 65 799 96 q 694 35 737 35 l 278 35 z "},"M":{"ha":1447,"x_min":35,"x_max":1354,"o":"m 1250 35 q 1176 65 1207 35 q 1146 139 1146 96 q 1176 212 1146 182 q 1250 243 1207 243 q 1323 212 1293 243 q 1354 139 1354 182 q 1323 65 1354 96 q 1250 35 1293 35 l 1250 35 m 139 35 q 65 65 96 35 q 35 139 35 96 l 35 555 q 106 727 35 656 q 278 799 177 799 l 555 799 q 727 727 656 799 q 799 555 799 656 l 799 278 q 809 253 799 263 q 833 243 819 243 q 858 253 848 243 q 868 278 868 263 l 868 555 q 939 727 868 656 q 1111 799 1010 799 q 1283 727 1212 799 q 1354 555 1354 656 l 1354 416 q 1318 343 1354 376 q 1250 312 1284 312 q 1176 343 1207 312 q 1146 416 1146 373 l 1146 555 q 1135 580 1146 570 q 1111 590 1125 590 q 1086 580 1097 590 q 1076 555 1076 570 l 1076 278 q 1005 106 1076 177 q 833 35 934 35 q 661 106 733 35 q 590 278 590 177 l 590 555 q 580 580 590 570 q 555 590 570 590 l 278 590 q 253 580 263 590 q 243 555 243 570 l 243 139 q 207 65 243 98 q 139 35 174 35 l 139 35 z "},"N":{"ha":1169,"x_min":35,"x_max":1076,"o":"m 139 35 q 65 65 96 35 q 35 139 35 96 q 65 212 35 182 q 139 243 96 243 q 212 212 182 243 q 243 139 243 182 q 212 65 243 96 q 139 35 182 35 l 139 35 m 833 35 q 661 106 733 35 q 590 278 590 177 l 590 555 q 580 580 590 570 q 555 590 570 590 l 278 590 q 253 580 263 590 q 243 555 243 570 l 243 416 q 207 343 243 376 q 139 312 174 312 q 65 343 96 312 q 35 416 35 373 l 35 555 q 106 727 35 656 q 278 799 177 799 l 555 799 q 727 727 656 799 q 799 555 799 656 l 799 278 q 809 253 799 263 q 833 243 819 243 q 858 253 848 243 q 868 278 868 263 l 868 694 q 904 768 868 735 q 972 799 937 799 q 1046 768 1015 799 q 1076 694 1076 737 l 1076 278 q 1005 106 1076 177 q 833 35 934 35 l 833 35 z "},"O":{"ha":1169,"x_min":35,"x_max":1076,"o":"m 416 312 q 343 343 373 312 q 312 416 312 373 q 343 490 312 459 q 416 521 373 521 q 490 490 459 521 q 521 416 521 459 q 490 343 521 373 q 416 312 459 312 l 416 312 m 833 243 q 858 253 848 243 q 868 278 868 263 l 868 555 q 858 580 868 570 q 833 590 848 590 l 278 590 q 253 580 263 590 q 243 555 243 570 l 243 278 q 253 253 243 263 q 278 243 263 243 l 833 243 m 278 35 q 106 106 177 35 q 35 278 35 177 l 35 555 q 106 727 35 656 q 278 799 177 799 l 833 799 q 1005 727 934 799 q 1076 555 1076 656 l 1076 278 q 1005 106 1076 177 q 833 35 934 35 l 278 35 z "},"P":{"ha":1169,"x_min":35,"x_max":1076,"o":"m 416 312 q 343 343 373 312 q 312 416 312 373 q 343 490 312 459 q 416 521 373 521 q 490 490 459 521 q 521 416 521 459 q 490 343 521 373 q 416 312 459 312 l 416 312 m 139 35 q 65 65 96 35 q 35 139 35 96 l 35 555 q 106 727 35 656 q 278 799 177 799 l 833 799 q 1005 727 934 799 q 1076 555 1076 656 q 1005 384 1076 455 q 833 312 934 312 l 694 312 q 621 343 651 312 q 590 416 590 373 q 621 485 590 451 q 694 521 653 521 l 833 521 q 858 531 848 521 q 868 555 868 541 q 858 580 868 570 q 833 590 848 590 l 278 590 q 253 580 263 590 q 243 555 243 570 l 243 139 q 207 65 243 98 q 139 35 174 35 l 139 35 z "},"Q":{"ha":1169,"x_min":35,"x_max":1076,"o":"m 694 -243 q 621 -212 651 -243 q 590 -139 590 -182 q 621 -65 590 -96 q 694 -35 651 -35 q 768 -65 737 -35 q 799 -139 799 -96 q 768 -212 799 -182 q 694 -243 737 -243 l 694 -243 m 416 312 q 343 343 373 312 q 312 416 312 373 q 343 490 312 459 q 416 521 373 521 q 490 490 459 521 q 521 416 521 459 q 490 343 521 373 q 416 312 459 312 l 416 312 m 278 35 q 106 106 177 35 q 35 278 35 177 l 35 555 q 106 727 35 656 q 278 799 177 799 l 833 799 q 1005 727 934 799 q 1076 555 1076 656 l 1076 278 q 1005 106 1076 177 q 833 35 934 35 l 694 35 q 621 65 651 35 q 590 139 590 96 q 621 207 590 174 q 694 243 653 243 l 833 243 q 858 253 848 243 q 868 278 868 263 l 868 555 q 858 580 868 570 q 833 590 848 590 l 278 590 q 253 580 263 590 q 243 555 243 570 l 243 278 q 253 253 243 263 q 278 243 263 243 l 416 243 q 490 207 457 243 q 521 139 521 174 q 490 65 521 96 q 416 35 459 35 l 278 35 z "},"R":{"ha":1169,"x_min":35,"x_max":1076,"o":"m 972 35 q 899 65 929 35 q 868 139 868 96 q 899 212 868 182 q 972 243 929 243 q 1046 212 1015 243 q 1076 139 1076 182 q 1046 65 1076 96 q 972 35 1015 35 l 972 35 m 139 35 q 65 65 96 35 q 35 139 35 96 l 35 555 q 106 727 35 656 q 278 799 177 799 l 833 799 q 1005 727 934 799 q 1076 555 1076 656 q 1005 384 1076 455 q 833 312 934 312 l 555 312 q 531 302 541 312 q 521 278 521 292 q 531 253 521 263 q 555 243 541 243 l 694 243 q 768 207 735 243 q 799 139 799 174 q 768 65 799 96 q 694 35 737 35 l 555 35 q 384 106 455 35 q 312 278 312 177 q 384 450 312 378 q 555 521 455 521 l 833 521 q 858 531 848 521 q 868 555 868 541 q 858 580 868 570 q 833 590 848 590 l 278 590 q 253 580 263 590 q 243 555 243 570 l 243 139 q 207 65 243 98 q 139 35 174 35 l 139 35 z "},"S":{"ha":1169,"x_min":35,"x_max":1076,"o":"m 139 35 q 65 65 96 35 q 35 139 35 96 q 65 207 35 174 q 139 243 98 243 l 833 243 q 858 253 848 243 q 868 278 868 263 q 858 302 868 292 q 833 312 848 312 l 278 312 q 106 384 177 312 q 35 555 35 455 q 106 727 35 656 q 278 799 177 799 l 694 799 q 768 763 735 799 q 799 694 799 729 q 768 621 799 651 q 694 590 737 590 l 278 590 q 253 580 263 590 q 243 555 243 570 q 253 531 243 541 q 278 521 263 521 l 833 521 q 1005 450 934 521 q 1076 278 1076 378 q 1005 106 1076 177 q 833 35 934 35 l 139 35 m 972 590 q 899 621 929 590 q 868 694 868 651 q 899 768 868 737 q 972 799 929 799 q 1046 768 1015 799 q 1076 694 1076 737 q 1046 621 1076 651 q 972 590 1015 590 l 972 590 z "},"T":{"ha":1169,"x_min":35,"x_max":1076,"o":"m 972 35 q 899 65 929 35 q 868 139 868 96 q 899 212 868 182 q 972 243 929 243 q 1046 212 1015 243 q 1076 139 1076 182 q 1046 65 1076 96 q 972 35 1015 35 l 972 35 m 555 35 q 384 106 455 35 q 312 278 312 177 l 312 555 q 302 580 312 570 q 278 590 292 590 l 139 590 q 65 621 96 590 q 35 694 35 651 q 65 763 35 729 q 139 799 98 799 l 278 799 q 352 787 316 799 q 416 755 387 776 q 481 787 447 776 q 555 799 517 799 l 972 799 q 1046 763 1013 799 q 1076 694 1076 729 q 1046 621 1076 651 q 972 590 1015 590 l 555 590 q 531 580 541 590 q 521 555 521 570 l 521 278 q 531 253 521 263 q 555 243 541 243 l 694 243 q 768 207 735 243 q 799 139 799 174 q 768 65 799 96 q 694 35 737 35 l 555 35 z "},"U":{"ha":1169,"x_min":35,"x_max":1076,"o":"m 555 312 q 482 343 512 312 q 451 416 451 373 q 482 490 451 459 q 555 521 512 521 q 629 490 598 521 q 660 416 660 459 q 629 343 660 373 q 555 312 598 312 l 555 312 m 278 35 q 106 106 177 35 q 35 278 35 177 l 35 694 q 65 768 35 737 q 139 799 96 799 q 207 768 174 799 q 243 694 243 735 l 243 278 q 253 253 243 263 q 278 243 263 243 l 833 243 q 858 253 848 243 q 868 278 868 263 l 868 694 q 899 768 868 737 q 972 799 929 799 q 1040 768 1007 799 q 1076 694 1076 735 l 1076 278 q 1005 106 1076 177 q 833 35 934 35 l 278 35 z "},"V":{"ha":1169,"x_min":35,"x_max":1076,"o":"m 416 312 q 343 343 373 312 q 312 416 312 373 q 343 490 312 459 q 416 521 373 521 q 490 490 459 521 q 521 416 521 459 q 490 343 521 373 q 416 312 459 312 l 416 312 m 278 35 q 106 106 177 35 q 35 278 35 177 l 35 694 q 65 768 35 737 q 139 799 96 799 q 207 768 174 799 q 243 694 243 735 l 243 278 q 253 253 243 263 q 278 243 263 243 l 555 243 q 580 253 570 243 q 590 278 590 263 q 661 450 590 378 q 833 521 733 521 q 858 531 848 521 q 868 555 868 541 l 868 694 q 899 768 868 737 q 972 799 929 799 q 1040 768 1007 799 q 1076 694 1076 735 l 1076 555 q 1005 384 1076 455 q 833 312 934 312 q 809 302 819 312 q 799 278 799 292 q 727 106 799 177 q 555 35 656 35 l 278 35 z "},"W":{"ha":1725,"x_min":35,"x_max":1632,"o":"m 416 312 q 343 343 373 312 q 312 416 312 373 q 343 490 312 459 q 416 521 373 521 q 490 490 459 521 q 521 416 521 459 q 490 343 521 373 q 416 312 459 312 l 416 312 m 278 35 q 106 106 177 35 q 35 278 35 177 l 35 694 q 65 768 35 737 q 139 799 96 799 q 207 768 174 799 q 243 694 243 735 l 243 278 q 253 253 243 263 q 278 243 263 243 l 833 243 q 858 253 848 243 q 868 278 868 263 l 868 694 q 899 768 868 737 q 972 799 929 799 q 1040 768 1007 799 q 1076 694 1076 735 l 1076 278 q 1086 253 1076 263 q 1111 243 1097 243 q 1135 253 1125 243 q 1146 278 1146 263 l 1146 555 q 1217 727 1146 656 q 1389 799 1288 799 l 1528 799 q 1601 763 1569 799 q 1632 694 1632 729 q 1601 621 1632 651 q 1528 590 1571 590 l 1389 590 q 1364 580 1374 590 q 1354 555 1354 570 l 1354 278 q 1283 106 1354 177 q 1111 35 1212 35 q 1037 46 1073 35 q 972 78 1002 57 q 907 46 942 57 q 833 35 871 35 l 278 35 z "},"X":{"ha":1169,"x_min":35,"x_max":1076,"o":"m 555 35 q 482 65 512 35 q 451 139 451 96 q 482 212 451 182 q 555 243 512 243 q 629 212 598 243 q 660 139 660 182 q 629 65 660 96 q 555 35 598 35 l 555 35 m 139 35 q 65 65 96 35 q 35 139 35 96 l 35 278 q 46 352 35 316 q 78 416 57 387 q 46 481 57 447 q 35 555 35 517 l 35 694 q 71 768 35 735 q 139 799 104 799 q 212 768 182 799 q 243 694 243 737 l 243 555 q 253 531 243 541 q 278 521 263 521 l 833 521 q 858 531 848 521 q 868 555 868 541 l 868 694 q 904 768 868 735 q 972 799 937 799 q 1046 768 1015 799 q 1076 694 1076 737 l 1076 555 q 1065 481 1076 517 q 1033 416 1054 447 q 1065 352 1054 387 q 1076 278 1076 316 l 1076 139 q 1040 65 1076 98 q 972 35 1007 35 q 899 65 929 35 q 868 139 868 96 l 868 278 q 858 302 868 292 q 833 312 848 312 l 278 312 q 253 302 263 312 q 243 278 243 292 l 243 139 q 207 65 243 98 q 139 35 174 35 l 139 35 z "},"Y":{"ha":1169,"x_min":35,"x_max":1076,"o":"m 139 35 q 65 65 96 35 q 35 139 35 96 q 65 212 35 182 q 139 243 96 243 q 212 212 182 243 q 243 139 243 182 q 212 65 243 96 q 139 35 182 35 l 139 35 m 416 35 q 343 65 373 35 q 312 139 312 96 q 343 207 312 174 q 416 243 376 243 l 833 243 q 858 253 848 243 q 868 278 868 263 q 858 302 868 292 q 833 312 848 312 l 278 312 q 106 384 177 312 q 35 555 35 455 l 35 694 q 71 768 35 735 q 139 799 104 799 q 212 768 182 799 q 243 694 243 737 l 243 555 q 253 531 243 541 q 278 521 263 521 l 833 521 q 858 531 848 521 q 868 555 868 541 l 868 694 q 904 768 868 735 q 972 799 937 799 q 1046 768 1015 799 q 1076 694 1076 737 l 1076 555 q 1065 481 1076 517 q 1033 416 1054 447 q 1065 352 1054 387 q 1076 278 1076 316 q 1005 106 1076 177 q 833 35 934 35 l 416 35 z "},"Z":{"ha":1169,"x_min":35,"x_max":1076,"o":"m 139 590 q 65 621 96 590 q 35 694 35 651 q 65 768 35 737 q 139 799 96 799 q 212 768 182 799 q 243 694 243 737 q 212 621 243 651 q 139 590 182 590 l 139 590 m 278 35 q 106 106 177 35 q 35 278 35 177 q 106 450 35 378 q 278 521 177 521 l 833 521 q 858 531 848 521 q 868 555 868 541 q 858 580 868 570 q 833 590 848 590 l 416 590 q 343 621 373 590 q 312 694 312 651 q 343 763 312 729 q 416 799 376 799 l 833 799 q 1005 727 934 799 q 1076 555 1076 656 q 1005 384 1076 455 q 833 312 934 312 l 278 312 q 253 302 263 312 q 243 278 243 292 q 253 253 243 263 q 278 243 263 243 l 972 243 q 1046 207 1013 243 q 1076 139 1076 174 q 1046 65 1076 96 q 972 35 1015 35 l 278 35 z "},"[":{"ha":614,"x_min":35,"x_max":521,"o":"m 416 35 q 343 65 373 35 q 312 139 312 96 q 343 212 312 182 q 416 243 373 243 q 490 212 459 243 q 521 139 521 182 q 490 65 521 96 q 416 35 459 35 l 416 35 m 139 35 q 65 65 96 35 q 35 139 35 96 l 35 555 q 106 727 35 656 q 278 799 177 799 l 416 799 q 490 768 459 799 q 521 694 521 737 q 490 626 521 660 q 416 590 457 590 l 278 590 q 253 580 263 590 q 243 555 243 570 l 243 139 q 207 65 243 98 q 139 35 174 35 l 139 35 z "},"\\":{"ha":614,"x_min":35,"x_max":521,"o":"m 416 35 q 348 65 382 35 q 312 139 312 98 l 312 278 q 302 302 312 292 q 278 312 292 312 q 106 384 177 312 q 35 555 35 455 l 35 694 q 71 768 35 735 q 139 799 104 799 q 212 768 182 799 q 243 694 243 737 l 243 555 q 253 531 243 541 q 278 521 263 521 q 450 450 378 521 q 521 278 521 378 l 521 139 q 490 65 521 96 q 416 35 459 35 l 416 35 z "},"]":{"ha":614,"x_min":35,"x_max":521,"o":"m 139 590 q 65 621 96 590 q 35 694 35 651 q 65 768 35 737 q 139 799 96 799 q 212 768 182 799 q 243 694 243 737 q 212 621 243 651 q 139 590 182 590 l 139 590 m 139 35 q 65 65 96 35 q 35 139 35 96 q 65 207 35 174 q 139 243 98 243 l 278 243 q 302 253 292 243 q 312 278 312 263 l 312 694 q 343 768 312 737 q 416 799 373 799 q 485 768 451 799 q 521 694 521 735 l 521 278 q 450 106 521 177 q 278 35 378 35 l 139 35 z "},"^":{"ha":614,"x_min":35,"x_max":521,"o":"m 416 35 q 343 65 373 35 q 312 139 312 96 q 343 212 312 182 q 416 243 373 243 q 490 212 459 243 q 521 139 521 182 q 490 65 521 96 q 416 35 459 35 l 416 35 m 139 35 q 65 65 96 35 q 35 139 35 96 l 35 555 q 106 727 35 656 q 278 799 177 799 q 450 727 378 799 q 521 555 521 656 l 521 416 q 485 343 521 376 q 416 312 451 312 q 343 343 373 312 q 312 416 312 373 l 312 555 q 302 580 312 570 q 278 590 292 590 q 253 580 263 590 q 243 555 243 570 l 243 139 q 207 65 243 98 q 139 35 174 35 l 139 35 z "},"_":{"ha":891,"x_min":35,"x_max":799,"o":"m 139 35 q 65 65 96 35 q 35 139 35 96 q 65 207 35 174 q 139 243 98 243 l 694 243 q 768 207 735 243 q 799 139 799 174 q 768 65 799 96 q 694 35 737 35 l 139 35 z "},"`":{"ha":336,"x_min":24,"x_max":243,"o":"m 139 590 q 71 621 104 590 q 35 694 35 653 l 35 833 q 32 846 35 840 q 24 886 24 866 q 32 926 24 906 q 88 983 48 966 q 128 991 108 991 q 168 983 148 991 q 224 926 208 966 q 238 881 233 904 q 243 833 243 858 l 243 694 q 212 621 243 651 q 139 590 182 590 l 139 590 z "},"a":{"ha":1169,"x_min":35,"x_max":1076,"o":"m 972 35 q 899 65 929 35 q 868 139 868 96 q 899 212 868 182 q 972 243 929 243 q 1046 212 1015 243 q 1076 139 1076 182 q 1046 65 1076 96 q 972 35 1015 35 l 972 35 m 278 35 q 106 106 177 35 q 35 278 35 177 l 35 555 q 106 727 35 656 q 278 799 177 799 l 833 799 q 1005 727 934 799 q 1076 555 1076 656 l 1076 416 q 1040 343 1076 376 q 972 312 1007 312 q 899 343 929 312 q 868 416 868 373 l 868 555 q 858 580 868 570 q 833 590 848 590 l 278 590 q 253 580 263 590 q 243 555 243 570 l 243 278 q 253 253 243 263 q 278 243 263 243 l 694 243 q 768 207 735 243 q 799 139 799 174 q 768 65 799 96 q 694 35 737 35 l 278 35 z "},"b":{"ha":1169,"x_min":35,"x_max":1076,"o":"m 278 35 q 106 106 177 35 q 35 278 35 177 l 35 694 q 71 768 35 735 q 139 799 104 799 q 212 768 182 799 q 243 694 243 737 l 243 278 q 253 253 243 263 q 278 243 263 243 l 833 243 q 858 253 848 243 q 868 278 868 263 l 868 555 q 858 580 868 570 q 833 590 848 590 l 416 590 q 343 621 373 590 q 312 694 312 651 q 343 763 312 729 q 416 799 376 799 l 833 799 q 1005 727 934 799 q 1076 555 1076 656 l 1076 278 q 1005 106 1076 177 q 833 35 934 35 l 278 35 m 139 868 q 65 899 96 868 q 35 972 35 929 q 65 1046 35 1015 q 139 1076 96 1076 q 212 1046 182 1076 q 243 972 243 1015 q 212 899 243 929 q 139 868 182 868 l 139 868 z "},"c":{"ha":1169,"x_min":35,"x_max":1076,"o":"m 972 35 q 899 65 929 35 q 868 139 868 96 q 899 212 868 182 q 972 243 929 243 q 1046 212 1015 243 q 1076 139 1076 182 q 1046 65 1076 96 q 972 35 1015 35 l 972 35 m 278 35 q 106 106 177 35 q 35 278 35 177 l 35 555 q 106 727 35 656 q 278 799 177 799 l 972 799 q 1046 763 1013 799 q 1076 694 1076 729 q 1046 621 1076 651 q 972 590 1015 590 l 278 590 q 253 580 263 590 q 243 555 243 570 l 243 278 q 253 253 243 263 q 278 243 263 243 l 694 243 q 768 212 737 243 q 799 139 799 182 q 768 71 799 104 q 694 35 735 35 l 278 35 z "},"d":{"ha":1169,"x_min":35,"x_max":1076,"o":"m 278 35 q 106 106 177 35 q 35 278 35 177 l 35 555 q 106 727 35 656 q 278 799 177 799 l 694 799 q 768 763 735 799 q 799 694 799 729 q 768 621 799 651 q 694 590 737 590 l 278 590 q 253 580 263 590 q 243 555 243 570 l 243 278 q 253 253 243 263 q 278 243 263 243 l 833 243 q 858 253 848 243 q 868 278 868 263 l 868 694 q 899 768 868 737 q 972 799 929 799 q 1040 768 1007 799 q 1076 694 1076 735 l 1076 278 q 1005 106 1076 177 q 833 35 934 35 l 278 35 m 972 868 q 899 899 929 868 q 868 972 868 929 q 899 1046 868 1015 q 972 1076 929 1076 q 1046 1046 1015 1076 q 1076 972 1076 1015 q 1046 899 1076 929 q 972 868 1015 868 l 972 868 z "},"e":{"ha":1169,"x_min":35,"x_max":1076,"o":"m 972 35 q 899 65 929 35 q 868 139 868 96 q 899 212 868 182 q 972 243 929 243 q 1046 212 1015 243 q 1076 139 1076 182 q 1046 65 1076 96 q 972 35 1015 35 l 972 35 m 833 521 q 858 531 848 521 q 868 555 868 541 q 858 580 868 570 q 833 590 848 590 l 278 590 q 253 580 263 590 q 243 555 243 570 q 253 531 243 541 q 278 521 263 521 l 833 521 m 278 35 q 106 106 177 35 q 35 278 35 177 q 46 352 35 316 q 78 416 57 387 q 46 481 57 447 q 35 555 35 517 q 106 727 35 656 q 278 799 177 799 l 833 799 q 1005 727 934 799 q 1076 555 1076 656 q 1005 384 1076 455 q 833 312 934 312 l 278 312 q 253 302 263 312 q 243 278 243 292 q 253 253 243 263 q 278 243 263 243 l 694 243 q 768 207 735 243 q 799 139 799 174 q 768 65 799 96 q 694 35 737 35 l 278 35 z "},"f":{"ha":1169,"x_min":35,"x_max":1076,"o":"m 139 -243 q 65 -212 96 -243 q 35 -139 35 -182 l 35 278 q 106 450 35 378 q 278 521 177 521 l 694 521 q 768 485 735 521 q 799 416 799 451 q 768 343 799 373 q 694 312 737 312 l 278 312 q 253 302 263 312 q 243 278 243 292 l 243 -139 q 207 -212 243 -180 q 139 -243 174 -243 l 139 -243 m 972 312 q 899 343 929 312 q 868 416 868 373 q 899 490 868 459 q 972 521 929 521 q 1046 490 1015 521 q 1076 416 1076 459 q 1046 343 1076 373 q 972 312 1015 312 l 972 312 m 139 590 q 65 621 96 590 q 35 694 35 651 q 65 763 35 729 q 139 799 98 799 l 972 799 q 1046 763 1013 799 q 1076 694 1076 729 q 1046 621 1076 651 q 972 590 1015 590 l 139 590 z "},"g":{"ha":1169,"x_min":35,"x_max":1076,"o":"m 139 -243 q 65 -212 96 -243 q 35 -139 35 -182 q 65 -65 35 -96 q 139 -35 96 -35 q 212 -65 182 -35 q 243 -139 243 -96 q 212 -212 243 -182 q 139 -243 182 -243 l 139 -243 m 694 312 q 621 343 651 312 q 590 416 590 373 q 621 490 590 459 q 694 521 651 521 q 768 490 737 521 q 799 416 799 459 q 768 343 799 373 q 694 312 737 312 l 694 312 m 833 243 q 858 253 848 243 q 868 278 868 263 l 868 555 q 858 580 868 570 q 833 590 848 590 l 278 590 q 253 580 263 590 q 243 555 243 570 l 243 278 q 253 253 243 263 q 278 243 263 243 l 833 243 m 416 -243 q 343 -212 373 -243 q 312 -139 312 -182 q 343 -71 312 -104 q 416 -35 376 -35 l 833 -35 q 858 -24 848 -35 q 868 0 868 -14 q 858 24 868 14 q 833 35 848 35 l 278 35 q 106 106 177 35 q 35 278 35 177 l 35 555 q 106 727 35 656 q 278 799 177 799 l 833 799 q 1005 727 934 799 q 1076 555 1076 656 l 1076 278 q 1065 203 1076 239 q 1033 139 1054 169 q 1065 74 1054 109 q 1076 0 1076 38 q 1005 -172 1076 -100 q 833 -243 934 -243 l 416 -243 z "},"h":{"ha":1169,"x_min":35,"x_max":1076,"o":"m 555 312 q 482 343 512 312 q 451 416 451 373 q 482 490 451 459 q 555 521 512 521 q 629 490 598 521 q 660 416 660 459 q 629 343 660 373 q 555 312 598 312 l 555 312 m 139 35 q 65 65 96 35 q 35 139 35 96 l 35 555 q 46 630 35 593 q 78 694 57 664 q 46 759 57 724 q 35 833 35 795 l 35 972 q 71 1046 35 1013 q 139 1076 104 1076 q 212 1046 182 1076 q 243 972 243 1015 l 243 833 q 253 809 243 819 q 278 799 263 799 l 833 799 q 1005 727 934 799 q 1076 555 1076 656 l 1076 139 q 1040 65 1076 98 q 972 35 1007 35 q 899 65 929 35 q 868 139 868 96 l 868 555 q 858 580 868 570 q 833 590 848 590 l 278 590 q 253 580 263 590 q 243 555 243 570 l 243 139 q 207 65 243 98 q 139 35 174 35 l 139 35 z "},"i":{"ha":614,"x_min":35,"x_max":521,"o":"m 416 35 q 343 65 373 35 q 312 139 312 96 l 312 555 q 302 580 312 570 q 278 590 292 590 l 139 590 q 65 621 96 590 q 35 694 35 651 q 65 763 35 729 q 139 799 98 799 l 278 799 q 450 727 378 799 q 521 555 521 656 l 521 139 q 485 65 521 98 q 416 35 451 35 l 416 35 m 416 868 q 343 899 373 868 q 312 972 312 929 q 343 1046 312 1015 q 416 1076 373 1076 q 490 1046 459 1076 q 521 972 521 1015 q 490 899 521 929 q 416 868 459 868 l 416 868 z "},"j":{"ha":1169,"x_min":35,"x_max":1076,"o":"m 139 -243 q 65 -212 96 -243 q 35 -139 35 -182 q 65 -71 35 -104 q 139 -35 98 -35 l 833 -35 q 858 -24 848 -35 q 868 0 868 -14 l 868 278 q 858 302 868 292 q 833 312 848 312 l 694 312 q 621 343 651 312 q 590 416 590 373 q 621 485 590 451 q 694 521 653 521 l 833 521 q 1005 450 934 521 q 1076 278 1076 378 l 1076 0 q 1005 -172 1076 -100 q 833 -243 934 -243 l 139 -243 m 972 590 q 899 621 929 590 q 868 694 868 651 q 899 768 868 737 q 972 799 929 799 q 1046 768 1015 799 q 1076 694 1076 737 q 1046 621 1076 651 q 972 590 1015 590 l 972 590 z "},"k":{"ha":1169,"x_min":35,"x_max":1076,"o":"m 972 590 q 899 621 929 590 q 868 694 868 651 q 899 768 868 737 q 972 799 929 799 q 1046 768 1015 799 q 1076 694 1076 737 q 1046 621 1076 651 q 972 590 1015 590 l 972 590 m 139 35 q 65 65 96 35 q 35 139 35 96 l 35 278 q 46 352 35 316 q 78 416 57 387 q 46 481 57 447 q 35 555 35 517 l 35 972 q 71 1046 35 1013 q 139 1076 104 1076 q 212 1046 182 1076 q 243 972 243 1015 l 243 555 q 253 531 243 541 q 278 521 263 521 l 833 521 q 1005 450 934 521 q 1076 278 1076 378 l 1076 139 q 1040 65 1076 98 q 972 35 1007 35 q 899 65 929 35 q 868 139 868 96 l 868 278 q 858 302 868 292 q 833 312 848 312 l 278 312 q 253 302 263 312 q 243 278 243 292 l 243 139 q 207 65 243 98 q 139 35 174 35 l 139 35 z "},"l":{"ha":891,"x_min":35,"x_max":799,"o":"m 694 35 q 621 65 651 35 q 590 139 590 96 q 621 212 590 182 q 694 243 651 243 q 768 212 737 243 q 799 139 799 182 q 768 65 799 96 q 694 35 737 35 l 694 35 m 278 35 q 106 106 177 35 q 35 278 35 177 l 35 972 q 65 1046 35 1015 q 139 1076 96 1076 q 207 1046 174 1076 q 243 972 243 1013 l 243 278 q 253 253 243 263 q 278 243 263 243 l 416 243 q 490 207 457 243 q 521 139 521 174 q 490 65 521 96 q 416 35 459 35 l 278 35 z "},"m":{"ha":1447,"x_min":35,"x_max":1354,"o":"m 1250 35 q 1176 65 1207 35 q 1146 139 1146 96 q 1176 212 1146 182 q 1250 243 1207 243 q 1323 212 1293 243 q 1354 139 1354 182 q 1323 65 1354 96 q 1250 35 1293 35 l 1250 35 m 139 35 q 65 65 96 35 q 35 139 35 96 l 35 555 q 106 727 35 656 q 278 799 177 799 l 555 799 q 727 727 656 799 q 799 555 799 656 l 799 278 q 809 253 799 263 q 833 243 819 243 q 858 253 848 243 q 868 278 868 263 l 868 555 q 939 727 868 656 q 1111 799 1010 799 q 1283 727 1212 799 q 1354 555 1354 656 l 1354 416 q 1318 343 1354 376 q 1250 312 1284 312 q 1176 343 1207 312 q 1146 416 1146 373 l 1146 555 q 1135 580 1146 570 q 1111 590 1125 590 q 1086 580 1097 590 q 1076 555 1076 570 l 1076 278 q 1005 106 1076 177 q 833 35 934 35 q 661 106 733 35 q 590 278 590 177 l 590 555 q 580 580 590 570 q 555 590 570 590 l 278 590 q 253 580 263 590 q 243 555 243 570 l 243 139 q 207 65 243 98 q 139 35 174 35 l 139 35 z "},"n":{"ha":1169,"x_min":35,"x_max":1076,"o":"m 139 35 q 65 65 96 35 q 35 139 35 96 q 65 212 35 182 q 139 243 96 243 q 212 212 182 243 q 243 139 243 182 q 212 65 243 96 q 139 35 182 35 l 139 35 m 833 35 q 661 106 733 35 q 590 278 590 177 l 590 555 q 580 580 590 570 q 555 590 570 590 l 278 590 q 253 580 263 590 q 243 555 243 570 l 243 416 q 207 343 243 376 q 139 312 174 312 q 65 343 96 312 q 35 416 35 373 l 35 555 q 106 727 35 656 q 278 799 177 799 l 555 799 q 727 727 656 799 q 799 555 799 656 l 799 278 q 809 253 799 263 q 833 243 819 243 q 858 253 848 243 q 868 278 868 263 l 868 694 q 904 768 868 735 q 972 799 937 799 q 1046 768 1015 799 q 1076 694 1076 737 l 1076 278 q 1005 106 1076 177 q 833 35 934 35 l 833 35 z "},"o":{"ha":1169,"x_min":35,"x_max":1076,"o":"m 555 312 q 482 343 512 312 q 451 416 451 373 q 482 490 451 459 q 555 521 512 521 q 629 490 598 521 q 660 416 660 459 q 629 343 660 373 q 555 312 598 312 l 555 312 m 833 243 q 858 253 848 243 q 868 278 868 263 l 868 555 q 858 580 868 570 q 833 590 848 590 l 278 590 q 253 580 263 590 q 243 555 243 570 l 243 278 q 253 253 243 263 q 278 243 263 243 l 833 243 m 278 35 q 106 106 177 35 q 35 278 35 177 l 35 555 q 106 727 35 656 q 278 799 177 799 l 833 799 q 1005 727 934 799 q 1076 555 1076 656 l 1076 278 q 1005 106 1076 177 q 833 35 934 35 l 278 35 z "},"p":{"ha":1169,"x_min":35,"x_max":1076,"o":"m 416 35 q 343 65 373 35 q 312 139 312 96 q 343 212 312 182 q 416 243 373 243 q 490 212 459 243 q 521 139 521 182 q 490 65 521 96 q 416 35 459 35 l 416 35 m 139 -243 q 65 -212 96 -243 q 35 -139 35 -182 l 35 555 q 106 727 35 656 q 278 799 177 799 l 833 799 q 1005 727 934 799 q 1076 555 1076 656 l 1076 278 q 1005 106 1076 177 q 833 35 934 35 l 694 35 q 621 65 651 35 q 590 139 590 96 q 621 207 590 174 q 694 243 653 243 l 833 243 q 858 253 848 243 q 868 278 868 263 l 868 555 q 858 580 868 570 q 833 590 848 590 l 278 590 q 253 580 263 590 q 243 555 243 570 l 243 -139 q 207 -212 243 -180 q 139 -243 174 -243 l 139 -243 z "},"q":{"ha":1169,"x_min":35,"x_max":1076,"o":"m 694 -243 q 621 -212 651 -243 q 590 -139 590 -182 q 621 -65 590 -96 q 694 -35 651 -35 q 768 -65 737 -35 q 799 -139 799 -96 q 768 -212 799 -182 q 694 -243 737 -243 l 694 -243 m 278 35 q 106 106 177 35 q 35 278 35 177 l 35 555 q 106 727 35 656 q 278 799 177 799 l 833 799 q 1005 727 934 799 q 1076 555 1076 656 l 1076 278 q 1005 106 1076 177 q 833 35 934 35 l 694 35 q 621 65 651 35 q 590 139 590 96 q 621 207 590 174 q 694 243 653 243 l 833 243 q 858 253 848 243 q 868 278 868 263 l 868 555 q 858 580 868 570 q 833 590 848 590 l 278 590 q 253 580 263 590 q 243 555 243 570 l 243 278 q 253 253 243 263 q 278 243 263 243 l 416 243 q 490 207 457 243 q 521 139 521 174 q 490 65 521 96 q 416 35 459 35 l 278 35 z "},"r":{"ha":1169,"x_min":35,"x_max":1076,"o":"m 139 35 q 65 65 96 35 q 35 139 35 96 l 35 555 q 106 727 35 656 q 278 799 177 799 l 694 799 q 768 763 735 799 q 799 694 799 729 q 768 621 799 651 q 694 590 737 590 l 278 590 q 253 580 263 590 q 243 555 243 570 l 243 139 q 207 65 243 98 q 139 35 174 35 l 139 35 m 972 590 q 899 621 929 590 q 868 694 868 651 q 899 768 868 737 q 972 799 929 799 q 1046 768 1015 799 q 1076 694 1076 737 q 1046 621 1076 651 q 972 590 1015 590 l 972 590 z "},"s":{"ha":1169,"x_min":35,"x_max":1076,"o":"m 139 35 q 65 65 96 35 q 35 139 35 96 q 65 212 35 182 q 139 243 96 243 q 212 212 182 243 q 243 139 243 182 q 212 65 243 96 q 139 35 182 35 l 139 35 m 416 35 q 343 71 376 35 q 312 139 312 104 q 343 212 312 182 q 416 243 373 243 l 833 243 q 858 253 848 243 q 868 278 868 263 q 858 302 868 292 q 833 312 848 312 l 278 312 q 106 384 177 312 q 35 555 35 455 q 106 727 35 656 q 278 799 177 799 l 972 799 q 1046 768 1015 799 q 1076 694 1076 737 q 1046 626 1076 660 q 972 590 1013 590 l 278 590 q 253 580 263 590 q 243 555 243 570 q 253 531 243 541 q 278 521 263 521 l 833 521 q 1005 450 934 521 q 1076 278 1076 378 q 1005 106 1076 177 q 833 35 934 35 l 416 35 z "},"t":{"ha":1169,"x_min":35,"x_max":1076,"o":"m 139 590 q 65 621 96 590 q 35 694 35 651 q 65 768 35 737 q 139 799 96 799 q 212 768 182 799 q 243 694 243 737 q 212 621 243 651 q 139 590 182 590 l 139 590 m 555 35 q 384 106 455 35 q 312 278 312 177 l 312 555 q 324 630 312 593 q 356 694 335 664 q 324 759 335 724 q 312 833 312 795 l 312 972 q 348 1046 312 1013 q 416 1076 382 1076 q 490 1046 459 1076 q 521 972 521 1015 l 521 833 q 531 809 521 819 q 555 799 541 799 l 972 799 q 1046 763 1013 799 q 1076 694 1076 729 q 1046 621 1076 651 q 972 590 1015 590 l 555 590 q 531 580 541 590 q 521 555 521 570 l 521 278 q 531 253 521 263 q 555 243 541 243 l 694 243 q 768 207 735 243 q 799 139 799 174 q 768 65 799 96 q 694 35 737 35 l 555 35 z "},"u":{"ha":1169,"x_min":35,"x_max":1076,"o":"m 555 312 q 482 343 512 312 q 451 416 451 373 q 482 490 451 459 q 555 521 512 521 q 629 490 598 521 q 660 416 660 459 q 629 343 660 373 q 555 312 598 312 l 555 312 m 278 35 q 106 106 177 35 q 35 278 35 177 l 35 694 q 65 768 35 737 q 139 799 96 799 q 207 768 174 799 q 243 694 243 735 l 243 278 q 253 253 243 263 q 278 243 263 243 l 833 243 q 858 253 848 243 q 868 278 868 263 l 868 694 q 899 768 868 737 q 972 799 929 799 q 1040 768 1007 799 q 1076 694 1076 735 l 1076 278 q 1005 106 1076 177 q 833 35 934 35 l 278 35 z "},"v":{"ha":1169,"x_min":35,"x_max":1076,"o":"m 416 312 q 343 343 373 312 q 312 416 312 373 q 343 490 312 459 q 416 521 373 521 q 490 490 459 521 q 521 416 521 459 q 490 343 521 373 q 416 312 459 312 l 416 312 m 278 35 q 106 106 177 35 q 35 278 35 177 l 35 694 q 65 768 35 737 q 139 799 96 799 q 207 768 174 799 q 243 694 243 735 l 243 278 q 253 253 243 263 q 278 243 263 243 l 555 243 q 580 253 570 243 q 590 278 590 263 q 661 450 590 378 q 833 521 733 521 q 858 531 848 521 q 868 555 868 541 l 868 694 q 899 768 868 737 q 972 799 929 799 q 1040 768 1007 799 q 1076 694 1076 735 l 1076 555 q 1005 384 1076 455 q 833 312 934 312 q 809 302 819 312 q 799 278 799 292 q 727 106 799 177 q 555 35 656 35 l 278 35 z "},"w":{"ha":1447,"x_min":35,"x_max":1354,"o":"m 416 312 q 343 343 373 312 q 312 416 312 373 q 343 490 312 459 q 416 521 373 521 q 490 490 459 521 q 521 416 521 459 q 490 343 521 373 q 416 312 459 312 l 416 312 m 278 35 q 106 106 177 35 q 35 278 35 177 l 35 694 q 65 768 35 737 q 139 799 96 799 q 207 768 174 799 q 243 694 243 735 l 243 278 q 253 253 243 263 q 278 243 263 243 l 555 243 q 580 253 570 243 q 590 278 590 263 l 590 555 q 661 727 590 656 q 833 799 733 799 q 1005 727 934 799 q 1076 555 1076 656 l 1076 278 q 1086 253 1076 263 q 1111 243 1097 243 q 1135 253 1125 243 q 1146 278 1146 263 l 1146 694 q 1176 768 1146 737 q 1250 799 1207 799 q 1318 768 1284 799 q 1354 694 1354 735 l 1354 278 q 1283 106 1354 177 q 1111 35 1212 35 q 939 106 1010 35 q 868 278 868 177 l 868 555 q 858 580 868 570 q 833 590 848 590 q 809 580 819 590 q 799 555 799 570 l 799 278 q 727 106 799 177 q 555 35 656 35 l 278 35 z "},"x":{"ha":1169,"x_min":35,"x_max":1076,"o":"m 555 35 q 482 65 512 35 q 451 139 451 96 q 482 212 451 182 q 555 243 512 243 q 629 212 598 243 q 660 139 660 182 q 629 65 660 96 q 555 35 598 35 l 555 35 m 139 35 q 65 65 96 35 q 35 139 35 96 l 35 278 q 46 352 35 316 q 78 416 57 387 q 46 481 57 447 q 35 555 35 517 l 35 694 q 71 768 35 735 q 139 799 104 799 q 212 768 182 799 q 243 694 243 737 l 243 555 q 253 531 243 541 q 278 521 263 521 l 833 521 q 858 531 848 521 q 868 555 868 541 l 868 694 q 904 768 868 735 q 972 799 937 799 q 1046 768 1015 799 q 1076 694 1076 737 l 1076 555 q 1065 481 1076 517 q 1033 416 1054 447 q 1065 352 1054 387 q 1076 278 1076 316 l 1076 139 q 1040 65 1076 98 q 972 35 1007 35 q 899 65 929 35 q 868 139 868 96 l 868 278 q 858 302 868 292 q 833 312 848 312 l 278 312 q 253 302 263 312 q 243 278 243 292 l 243 139 q 207 65 243 98 q 139 35 174 35 l 139 35 z "},"y":{"ha":1169,"x_min":35,"x_max":1076,"o":"m 139 -243 q 65 -212 96 -243 q 35 -139 35 -182 q 65 -65 35 -96 q 139 -35 96 -35 q 212 -65 182 -35 q 243 -139 243 -96 q 212 -212 243 -182 q 139 -243 182 -243 l 139 -243 m 416 -243 q 343 -212 373 -243 q 312 -139 312 -182 q 343 -71 312 -104 q 416 -35 376 -35 l 833 -35 q 858 -24 848 -35 q 868 0 868 -14 q 858 24 868 14 q 833 35 848 35 l 278 35 q 106 106 177 35 q 35 278 35 177 l 35 694 q 71 768 35 735 q 139 799 104 799 q 212 768 182 799 q 243 694 243 737 l 243 278 q 253 253 243 263 q 278 243 263 243 l 833 243 q 858 253 848 243 q 868 278 868 263 l 868 694 q 904 768 868 735 q 972 799 937 799 q 1046 768 1015 799 q 1076 694 1076 737 l 1076 278 q 1065 203 1076 239 q 1033 139 1054 169 q 1065 74 1054 109 q 1076 0 1076 38 q 1005 -172 1076 -100 q 833 -243 934 -243 l 416 -243 z "},"z":{"ha":1169,"x_min":35,"x_max":1076,"o":"m 139 590 q 65 621 96 590 q 35 694 35 651 q 65 768 35 737 q 139 799 96 799 q 212 768 182 799 q 243 694 243 737 q 212 621 243 651 q 139 590 182 590 l 139 590 m 278 35 q 106 106 177 35 q 35 278 35 177 q 106 450 35 378 q 278 521 177 521 l 833 521 q 858 531 848 521 q 868 555 868 541 q 858 580 868 570 q 833 590 848 590 l 416 590 q 343 621 373 590 q 312 694 312 651 q 343 763 312 729 q 416 799 376 799 l 833 799 q 1005 727 934 799 q 1076 555 1076 656 q 1005 384 1076 455 q 833 312 934 312 l 278 312 q 253 302 263 312 q 243 278 243 292 q 253 253 243 263 q 278 243 263 243 l 972 243 q 1046 207 1013 243 q 1076 139 1076 174 q 1046 65 1076 96 q 972 35 1015 35 l 278 35 z "},"{":{"ha":891,"x_min":174,"x_max":799,"o":"m 555 35 q 384 106 455 35 q 312 278 312 177 q 302 302 312 292 q 278 312 292 312 q 204 343 235 312 q 174 416 174 373 q 204 490 174 459 q 278 521 235 521 q 302 531 292 521 q 312 555 312 541 q 384 727 312 656 q 555 799 455 799 l 694 799 q 768 768 737 799 q 799 694 799 737 q 768 626 799 660 q 694 590 735 590 l 555 590 q 531 580 541 590 q 521 555 521 570 q 509 481 521 517 q 477 416 498 447 q 509 352 498 387 q 521 278 521 316 q 531 253 521 263 q 555 243 541 243 l 694 243 q 768 207 735 243 q 799 139 799 174 q 768 65 799 96 q 694 35 737 35 l 555 35 z "},"|":{"ha":336,"x_min":35,"x_max":243,"o":"m 139 35 q 65 65 96 35 q 35 139 35 96 l 35 694 q 71 768 35 735 q 139 799 104 799 q 212 768 182 799 q 243 694 243 737 l 243 139 q 207 65 243 98 q 139 35 174 35 l 139 35 z "},"}":{"ha":891,"x_min":35,"x_max":660,"o":"m 139 35 q 65 65 96 35 q 35 139 35 96 q 65 207 35 174 q 139 243 98 243 l 278 243 q 302 253 292 243 q 312 278 312 263 q 324 352 312 316 q 356 416 335 387 q 324 481 335 447 q 312 555 312 517 q 302 580 312 570 q 278 590 292 590 l 139 590 q 65 626 98 590 q 35 694 35 660 q 65 768 35 737 q 139 799 96 799 l 278 799 q 450 727 378 799 q 521 555 521 656 q 531 531 521 541 q 555 521 541 521 q 629 490 598 521 q 660 416 660 459 q 629 343 660 373 q 555 312 598 312 q 531 302 541 312 q 521 278 521 292 q 450 106 521 177 q 278 35 378 35 l 139 35 z "},"~":{"ha":891,"x_min":35,"x_max":799,"o":"m 555 35 q 384 106 455 35 q 312 278 312 177 q 302 302 312 292 q 278 312 292 312 l 139 312 q 65 348 98 312 q 35 416 35 382 q 65 490 35 459 q 139 521 96 521 l 278 521 q 450 450 378 521 q 521 278 521 378 q 531 253 521 263 q 555 243 541 243 l 694 243 q 768 212 737 243 q 799 139 799 182 q 768 71 799 104 q 694 35 735 35 l 555 35 z "},"":{"ha":336,"x_min":35,"x_max":243,"o":"m 139 35 q 71 65 104 35 q 35 139 35 98 l 35 416 q 65 490 35 459 q 139 521 96 521 q 207 490 174 521 q 243 416 243 457 l 243 139 q 212 65 243 96 q 139 35 182 35 l 139 35 m 139 590 q 65 621 96 590 q 35 694 35 651 q 65 768 35 737 q 139 799 96 799 q 212 768 182 799 q 243 694 243 737 q 212 621 243 651 q 139 590 182 590 l 139 590 z "},"":{"ha":1169,"x_min":35,"x_max":1076,"o":"m 555 -243 q 482 -212 512 -243 q 451 -139 451 -182 q 482 -65 451 -96 q 555 -35 512 -35 q 629 -65 598 -35 q 660 -139 660 -96 q 629 -212 660 -182 q 555 -243 598 -243 l 555 -243 m 278 35 q 106 106 177 35 q 35 278 35 177 l 35 555 q 106 727 35 656 q 278 799 177 799 l 972 799 q 1046 763 1013 799 q 1076 694 1076 729 q 1046 621 1076 651 q 972 590 1015 590 l 278 590 q 253 580 263 590 q 243 555 243 570 l 243 278 q 253 253 243 263 q 278 243 263 243 l 972 243 q 1046 207 1013 243 q 1076 139 1076 174 q 1046 65 1076 96 q 972 35 1015 35 l 278 35 m 555 868 q 482 899 512 868 q 451 972 451 929 q 482 1046 451 1015 q 555 1076 512 1076 q 629 1046 598 1076 q 660 972 660 1015 q 629 899 660 929 q 555 868 598 868 l 555 868 z "},"":{"ha":1169,"x_min":312,"x_max":1076,"o":"m 416 312 q 343 343 373 312 q 312 416 312 373 q 343 490 312 459 q 416 521 373 521 q 490 490 459 521 q 521 416 521 459 q 490 343 521 373 q 416 312 459 312 l 416 312 m 972 312 q 899 343 929 312 q 868 416 868 373 q 899 490 868 459 q 972 521 929 521 q 1046 490 1015 521 q 1076 416 1076 459 q 1046 343 1076 373 q 972 312 1015 312 l 972 312 m 416 35 q 343 65 373 35 q 312 139 312 96 q 343 207 312 174 q 416 243 376 243 l 555 243 q 580 253 570 243 q 590 278 590 263 l 590 555 q 661 727 590 656 q 833 799 733 799 l 972 799 q 1046 763 1013 799 q 1076 694 1076 729 q 1046 621 1076 651 q 972 590 1015 590 l 833 590 q 809 580 819 590 q 799 555 799 570 l 799 278 q 809 253 799 263 q 833 243 819 243 l 972 243 q 1046 207 1013 243 q 1076 139 1076 174 q 1046 65 1076 96 q 972 35 1015 35 l 833 35 q 759 46 795 35 q 694 78 724 57 q 630 46 664 57 q 555 35 593 35 l 416 35 z "},"":{"ha":1447,"x_min":174,"x_max":1215,"o":"m 833 243 q 858 253 848 243 q 868 278 868 263 l 868 555 q 858 580 868 570 q 833 590 848 590 l 555 590 q 531 580 541 590 q 521 555 521 570 l 521 278 q 531 253 521 263 q 555 243 541 243 l 833 243 m 278 35 q 204 65 235 35 q 174 139 174 96 q 204 212 174 182 q 278 243 235 243 q 302 253 292 243 q 312 278 312 263 l 312 555 q 302 580 312 570 q 278 590 292 590 q 204 621 235 590 q 174 694 174 651 q 204 768 174 737 q 278 799 235 799 q 352 787 316 799 q 416 755 387 776 q 481 787 447 776 q 555 799 517 799 l 833 799 q 907 787 871 799 q 972 755 942 776 q 1037 787 1002 776 q 1111 799 1073 799 q 1184 768 1154 799 q 1215 694 1215 737 q 1184 621 1215 651 q 1111 590 1154 590 q 1086 580 1097 590 q 1076 555 1076 570 l 1076 278 q 1086 253 1076 263 q 1111 243 1097 243 q 1184 212 1154 243 q 1215 139 1215 182 q 1184 65 1215 96 q 1111 35 1154 35 q 1037 46 1073 35 q 972 78 1002 57 q 907 46 942 57 q 833 35 871 35 l 555 35 q 481 46 517 35 q 416 78 447 57 q 352 46 387 57 q 278 35 316 35 l 278 35 z "},"":{"ha":1169,"x_min":312,"x_max":1076,"o":"m 416 312 q 343 343 373 312 q 312 416 312 373 q 343 490 312 459 q 416 521 373 521 q 490 490 459 521 q 521 416 521 459 q 490 343 521 373 q 416 312 459 312 l 416 312 m 972 312 q 899 343 929 312 q 868 416 868 373 q 899 490 868 459 q 972 521 929 521 q 1046 490 1015 521 q 1076 416 1076 459 q 1046 343 1076 373 q 972 312 1015 312 l 972 312 m 694 35 q 621 65 651 35 q 590 139 590 96 l 590 555 q 580 580 590 570 q 555 590 570 590 q 384 661 455 590 q 312 833 312 733 q 343 907 312 876 q 416 937 373 937 q 490 907 459 937 q 521 833 521 876 q 531 809 521 819 q 555 799 541 799 q 630 787 593 799 q 694 755 664 776 q 759 787 724 776 q 833 799 795 799 q 858 809 848 799 q 868 833 868 819 q 899 907 868 876 q 972 937 929 937 q 1046 907 1015 937 q 1076 833 1076 876 q 1005 661 1076 733 q 833 590 934 590 q 809 580 819 590 q 799 555 799 570 l 799 139 q 763 65 799 98 q 694 35 729 35 l 694 35 z "},"":{"ha":336,"x_min":35,"x_max":243,"o":"m 139 35 q 65 65 96 35 q 35 139 35 96 l 35 278 l 243 278 l 243 139 q 207 65 243 98 q 139 35 174 35 l 139 35 m 35 555 l 35 694 q 71 768 35 735 q 139 799 104 799 q 212 768 182 799 q 243 694 243 737 l 243 555 l 35 555 z "},"":{"ha":1447,"x_min":35,"x_max":1354,"o":"m 139 35 q 65 65 96 35 q 35 139 35 96 q 65 212 35 182 q 139 243 96 243 q 212 212 182 243 q 243 139 243 182 q 212 65 243 96 q 139 35 182 35 l 139 35 m 694 477 q 759 509 724 498 q 833 521 795 521 q 858 531 848 521 q 868 555 868 541 q 858 580 868 570 q 833 590 848 590 q 759 602 795 590 q 694 634 724 613 q 630 602 664 613 q 555 590 593 590 q 531 580 541 590 q 521 555 521 570 q 531 531 521 541 q 555 521 541 521 q 630 509 593 521 q 694 477 664 498 l 694 477 m 416 35 q 343 65 373 35 q 312 139 312 96 q 343 207 312 174 q 416 243 376 243 l 555 243 q 580 253 570 243 q 590 278 590 263 q 580 302 590 292 q 555 312 570 312 q 384 384 455 312 q 312 555 312 455 q 384 727 312 656 q 555 799 455 799 q 580 809 570 799 q 590 833 590 819 q 661 1005 590 934 q 833 1076 733 1076 l 972 1076 q 1046 1040 1013 1076 q 1076 972 1076 1007 q 1046 899 1076 929 q 972 868 1015 868 l 833 868 q 809 858 819 868 q 799 833 799 848 q 809 809 799 819 q 833 799 819 799 q 1005 727 934 799 q 1076 555 1076 656 q 1005 384 1076 455 q 833 312 934 312 q 809 302 819 312 q 799 278 799 292 q 727 106 799 177 q 555 35 656 35 l 416 35 m 1250 868 q 1176 899 1207 868 q 1146 972 1146 929 q 1176 1046 1146 1015 q 1250 1076 1207 1076 q 1323 1046 1293 1076 q 1354 972 1354 1015 q 1323 899 1354 929 q 1250 868 1293 868 l 1250 868 z "},"":{"ha":614,"x_min":35,"x_max":521,"o":"m 139 590 q 65 621 96 590 q 35 694 35 651 q 65 768 35 737 q 139 799 96 799 q 212 768 182 799 q 243 694 243 737 q 212 621 243 651 q 139 590 182 590 l 139 590 m 416 590 q 343 621 373 590 q 312 694 312 651 q 343 768 312 737 q 416 799 373 799 q 490 768 459 799 q 521 694 521 737 q 490 621 521 651 q 416 590 459 590 l 416 590 z "},"":{"ha":891,"x_min":35,"x_max":799,"o":"m 694 35 q 621 65 651 35 q 590 139 590 96 l 590 278 q 580 302 590 292 q 555 312 570 312 l 139 312 q 65 343 96 312 q 35 416 35 373 q 65 485 35 451 q 139 521 98 521 l 555 521 q 727 450 656 521 q 799 278 799 378 l 799 139 q 763 65 799 98 q 694 35 729 35 l 694 35 z "},"":{"ha":891,"x_min":35,"x_max":799,"o":"m 139 312 q 65 343 96 312 q 35 416 35 373 q 65 485 35 451 q 139 521 98 521 l 694 521 q 768 485 735 521 q 799 416 799 451 q 768 343 799 373 q 694 312 737 312 l 139 312 z "},"":{"ha":891,"x_min":35,"x_max":799,"o":"m 139 590 q 65 621 96 590 q 35 694 35 651 q 65 763 35 729 q 139 799 98 799 l 694 799 q 768 763 735 799 q 799 694 799 729 q 768 621 799 651 q 694 590 737 590 l 139 590 z "},"":{"ha":336,"x_min":0,"x_max":278,"o":"m 139 642 q 176 657 160 642 q 191 694 191 673 q 176 731 191 716 q 139 746 160 746 q 102 731 117 746 q 87 694 87 716 q 102 657 87 673 q 139 642 117 642 l 139 642 m 139 555 q 40 596 81 555 q 0 694 0 637 q 40 792 0 752 q 139 833 81 833 q 237 792 196 833 q 278 694 278 752 q 237 596 278 637 q 139 555 196 555 l 139 555 z "},"":{"ha":891,"x_min":35,"x_max":799,"o":"m 139 35 q 65 65 96 35 q 35 139 35 96 q 65 207 35 174 q 139 243 98 243 l 694 243 q 768 207 735 243 q 799 139 799 174 q 768 65 799 96 q 694 35 737 35 l 139 35 m 416 451 q 343 482 373 451 q 312 555 312 512 q 302 580 312 570 q 278 590 292 590 l 139 590 q 65 621 96 590 q 35 694 35 651 q 65 763 35 729 q 139 799 98 799 l 278 799 q 352 787 316 799 q 416 755 387 776 q 481 787 447 776 q 555 799 517 799 l 694 799 q 768 763 735 799 q 799 694 799 729 q 768 621 799 651 q 694 590 737 590 l 555 590 q 531 580 541 590 q 521 555 521 570 q 490 482 521 512 q 416 451 459 451 l 416 451 m 416 868 q 343 899 373 868 q 312 972 312 929 q 343 1046 312 1015 q 416 1076 373 1076 q 490 1046 459 1076 q 521 972 521 1015 q 490 899 521 929 q 416 868 459 868 l 416 868 z "},"":{"ha":336,"x_min":0,"x_max":278,"o":"m 139 660 q 163 670 153 660 q 174 694 174 680 q 163 719 174 709 q 139 729 153 729 q 114 719 124 729 q 104 694 104 709 q 114 670 104 680 q 139 660 124 660 l 139 660 m 139 555 q 40 596 81 555 q 0 694 0 637 q 40 792 0 752 q 139 833 81 833 q 237 792 196 833 q 278 694 278 752 q 237 596 278 637 q 139 555 196 555 l 139 555 z "},"":{"ha":336,"x_min":35,"x_max":254,"o":"m 139 590 q 65 621 96 590 q 35 694 35 651 l 35 833 q 39 881 35 858 q 53 926 44 904 q 109 983 70 966 q 149 991 129 991 q 189 983 169 991 q 245 926 229 966 q 254 886 254 906 q 245 846 254 866 q 243 833 243 840 l 243 694 q 207 621 243 653 q 139 590 174 590 l 139 590 z "},"":{"ha":336,"x_min":24,"x_max":243,"o":"m 139 590 q 71 621 104 590 q 35 694 35 653 l 35 833 q 32 846 35 840 q 24 886 24 866 q 32 926 24 906 q 88 983 48 966 q 128 991 108 991 q 168 983 148 991 q 224 926 208 966 q 238 881 233 904 q 243 833 243 858 l 243 694 q 212 621 243 651 q 139 590 182 590 l 139 590 z "},"":{"ha":614,"x_min":35,"x_max":532,"o":"m 139 590 q 65 621 96 590 q 35 694 35 651 l 35 833 q 39 881 35 858 q 53 926 44 904 q 109 983 70 966 q 149 991 129 991 q 189 983 169 991 q 245 926 229 966 q 254 886 254 906 q 245 846 254 866 q 243 833 243 840 l 243 694 q 207 621 243 653 q 139 590 174 590 l 139 590 m 416 590 q 343 621 373 590 q 312 694 312 651 l 312 833 q 317 881 312 858 q 331 926 322 904 q 387 983 347 966 q 427 991 407 991 q 467 983 447 991 q 524 926 507 966 q 532 886 532 906 q 524 846 532 866 q 521 833 521 840 l 521 694 q 485 621 521 653 q 416 590 451 590 l 416 590 z "},"":{"ha":614,"x_min":24,"x_max":521,"o":"m 128 675 q 88 684 108 675 q 32 740 48 700 q 24 780 24 760 q 32 820 24 800 q 35 833 35 826 l 35 972 q 71 1046 35 1013 q 139 1076 104 1076 q 212 1046 182 1076 q 243 972 243 1015 l 243 833 q 238 785 243 809 q 224 740 233 762 q 168 684 208 701 q 128 675 148 675 l 128 675 m 406 675 q 366 684 386 675 q 310 740 326 700 q 301 780 301 760 q 310 820 301 800 q 312 833 312 826 l 312 972 q 348 1046 312 1013 q 416 1076 382 1076 q 490 1046 459 1076 q 521 972 521 1015 l 521 833 q 516 785 521 809 q 502 740 511 762 q 446 684 486 701 q 406 675 426 675 l 406 675 z "}}}
